#!OML:ASF F:\VICON\USERDATA\INSTALL\rory3\rory3.ASF
:FULLY-SPECIFIED
:DEGREES
2000
root -0.188167 18.1554 -6.79572 537.463 70.6919 171.526
lowerback 12.0144 1.65861 2.30255
upperback 2.1693 2.63327 0.790204
thorax -4.39205 1.3169 -0.883529
lowerneck -10.3299 -3.06705 -11.4689
upperneck 43.9328 2.55185 0.66321
head 18.28 0.35272 3.21187
rclavicle -1.61016e-014 -4.05521e-014
rhumerus -32.028 -7.26978 -81.2628
rradius 40.4605
rwrist -0.0413351
rhand -15.4443 8.04256
rfingers 7.12502
rthumb 10.7362 -21.6631
lclavicle -1.61016e-014 -4.05521e-014
lhumerus -40.3075 5.56302 83.8713
lradius 44.9493
lwrist -4.46262
lhand -17.4318 26.6522
lfingers 7.12502
lthumb 8.81863 56.4479
rfemur -6.67062 -0.119492 24.0511
rtibia 24.5247
rfoot -13.4445 0.704806
rtoes 4.04685
lfemur -26.1728 -7.00521 -18.045
ltibia 28.792
lfoot -4.76916 -9.07229
ltoes -10.7035
2001
root -0.274029 18.1621 -6.76221 537.378 70.3579 171.585
lowerback 12.0541 1.71352 2.36047
upperback 2.24311 2.71091 0.691152
thorax -4.32672 1.35665 -1.03092
lowerneck -10.5245 -3.16418 -11.2755
upperneck 44.0425 2.3436 0.779753
head 18.4098 0.310895 3.20726
rclavicle -1.98785e-015 -3.4191e-014
rhumerus -32.0761 -7.50623 -81.2349
rradius 41.1399
rwrist -0.156691
rhand -15.8729 8.03549
rfingers 7.12502
rthumb 10.3228 -21.6912
lclavicle -1.98785e-015 -3.4191e-014
lhumerus -40.2321 5.29019 83.6732
lradius 44.2969
lwrist -4.70256
lhand -17.5935 26.7817
lfingers 7.12502
lthumb 8.66262 56.5839
rfemur -6.87762 -0.196863 24.1023
rtibia 24.5937
rfoot -13.0876 0.641147
rtoes 4.95566
lfemur -25.8264 -6.8986 -18.0647
ltibia 30.5017
lfoot -5.29963 -7.20717
ltoes -11.3886
2002
root -0.358834 18.1664 -6.73053 537.226 69.9277 171.567
lowerback 12.0611 1.75173 2.38501
upperback 2.25212 2.75991 0.592078
thorax -4.31336 1.38038 -1.1554
lowerneck -10.4378 -3.22283 -11.0869
upperneck 44.0687 2.13755 0.932889
head 18.4085 0.28692 3.21346
rclavicle -9.40251e-014 -2.94201e-014
rhumerus -32.3452 -8.19897 -81.0624
rradius 41.8246
rwrist -0.0378391
rhand -15.9662 8.1631
rfingers 7.12502
rthumb 10.2328 -21.568
lclavicle -9.40251e-014 -2.94201e-014
lhumerus -40.2819 5.17917 83.415
lradius 43.6252
lwrist -4.96752
lhand -17.6641 26.7173
lfingers 7.12502
lthumb 8.59447 56.5223
rfemur -7.0788 -0.296995 24.1088
rtibia 24.6708
rfoot -12.9217 0.33373
rtoes 4.5074
lfemur -25.479 -6.80768 -18.1712
ltibia 32.23
lfoot -5.60497 -5.5163
ltoes -11.4557
2003
root -0.444033 18.1696 -6.69891 537.029 69.4612 171.485
lowerback 12.124 1.71983 2.25504
upperback 2.2003 2.70228 0.582457
thorax -4.40982 1.3512 -1.08743
lowerneck -10.3156 -3.25592 -10.9536
upperneck 44.0855 2.05121 0.931448
head 18.3903 0.28298 3.17519
rclavicle 1.68967e-014 5.56597e-015
rhumerus -32.5095 -8.86938 -80.8527
rradius 42.3679
rwrist 0.136265
rhand -16.0575 8.34532
rfingers 7.12502
rthumb 10.1447 -21.3901
lclavicle 1.68967e-014 5.56597e-015
lhumerus -40.5323 5.31255 83.2039
lradius 43.0349
lwrist -5.1348
lhand -17.9301 26.9586
lfingers 7.12502
lthumb 8.33777 56.7741
rfemur -7.28699 -0.434708 24.0856
rtibia 24.7258
rfoot -12.8304 -0.15364
rtoes 2.89917
lfemur -25.1287 -6.75877 -18.2994
ltibia 33.9591
lfoot -5.91028 -3.74343
ltoes -11.1508
2004
root -0.525954 18.1702 -6.66576 537.304 69.025 171.878
lowerback 12.088 1.69055 2.29944
upperback 2.14458 2.67009 0.627755
thorax -4.4496 1.33334 -1.06008
lowerneck -10.1087 -3.31119 -10.8236
upperneck 44.0354 1.97091 0.793585
head 18.313 0.267243 3.06913
rclavicle -4.17448e-014 2.14687e-014
rhumerus -32.5057 -9.17237 -80.7443
rradius 42.7118
rwrist -0.0165136
rhand -16.3707 8.4306
rfingers 7.12502
rthumb 9.84248 -21.3194
lclavicle -4.17448e-014 2.14687e-014
lhumerus -40.7894 5.53563 82.983
lradius 42.4482
lwrist -5.40137
lhand -17.9931 27.2339
lfingers 7.12502
lthumb 8.277 57.0518
rfemur -7.4976 -0.61918 24.2523
rtibia 24.7581
rfoot -12.7115 -0.679395
rtoes 1.15597
lfemur -24.761 -6.5848 -18.268
ltibia 35.6717
lfoot -6.164 -1.97351
ltoes -12.8636
2005
root -0.604482 18.1747 -6.6328 537.483 68.5997 172.175
lowerback 11.9805 1.63074 2.36462
upperback 2.12586 2.59538 0.624398
thorax -4.40931 1.29574 -1.0851
lowerneck -9.94969 -3.32487 -10.7141
upperneck 44.0016 1.93369 0.732141
head 18.2518 0.27207 3.01176
rclavicle 7.63333e-014 1.11319e-014
rhumerus -32.4415 -9.41687 -80.7623
rradius 42.9949
rwrist -0.217037
rhand -16.5724 8.48952
rfingers 7.12502
rthumb 9.64791 -21.2695
lclavicle 7.63333e-014 1.11319e-014
lhumerus -40.9944 5.85095 82.6437
lradius 41.856
lwrist -5.63167
lhand -17.9284 27.4799
lfingers 7.12502
lthumb 8.33947 57.2953
rfemur -7.70135 -0.738599 24.3682
rtibia 24.8278
rfoot -12.5183 -0.952147
rtoes 1.22993
lfemur -24.3545 -6.30367 -18.2665
ltibia 37.3223
lfoot -6.15166 -0.593094
ltoes -13.787
2006
root -0.683151 18.1834 -6.59961 537.586 68.1141 172.428
lowerback 11.9025 1.48398 2.38821
upperback 2.16195 2.40466 0.656433
thorax -4.33532 1.20382 -1.03257
lowerneck -9.95938 -3.27016 -10.8848
upperneck 43.9915 1.98744 0.918981
head 18.2393 0.290155 3.13987
rclavicle 6.16232e-015 8.74653e-015
rhumerus -32.5204 -9.23985 -80.8024
rradius 43.5956
rwrist -0.652292
rhand -16.4401 8.42446
rfingers 7.12502
rthumb 9.77559 -21.3286
lclavicle 6.16232e-015 8.74653e-015
lhumerus -41.1031 6.32244 82.3067
lradius 41.2408
lwrist -5.80376
lhand -17.8852 27.8665
lfingers 7.12502
lthumb 8.38116 57.6802
rfemur -7.90019 -0.999712 24.4401
rtibia 24.9289
rfoot -12.3152 -0.926445
rtoes 2.46498
lfemur -23.9115 -5.94409 -18.2633
ltibia 38.9088
lfoot -6.07148 0.280083
ltoes -12.3445
2007
root -0.760872 18.1863 -6.56783 537.444 67.6213 172.463
lowerback 11.8495 1.37869 2.31423
upperback 2.19604 2.25775 0.696875
thorax -4.27975 1.13448 -0.9244
lowerneck -9.9351 -3.28987 -11.1097
upperneck 43.9561 1.97616 1.01223
head 18.2139 0.263388 3.22076
rclavicle -1.51076e-014 3.18055e-015
rhumerus -32.5646 -9.03429 -80.7715
rradius 44.1038
rwrist -0.993383
rhand -16.4659 8.19612
rfingers 7.12502
rthumb 9.75066 -21.5582
lclavicle -1.51076e-014 3.18055e-015
lhumerus -41.1718 6.75518 82.0615
lradius 40.5458
lwrist -6.00127
lhand -17.8668 28.2249
lfingers 7.12502
lthumb 8.39892 58.0379
rfemur -8.06576 -1.35897 24.4007
rtibia 25.0455
rfoot -12.2891 -0.976577
rtoes 3.20036
lfemur -23.3553 -5.49276 -18.3936
ltibia 40.4035
lfoot -6.07161 1.00083
ltoes -11.0366
2008
root -0.835392 18.1862 -6.53412 537.174 67.0994 172.339
lowerback 11.7867 1.31951 2.0872
upperback 2.18922 2.15131 0.736395
thorax -4.26537 1.08521 -0.737914
lowerneck -9.84324 -3.33954 -11.1672
upperneck 43.9177 1.9494 0.922245
head 18.1744 0.239195 3.18199
rclavicle -9.14409e-015 6.36111e-015
rhumerus -32.5159 -9.25562 -80.639
rradius 44.3164
rwrist -0.940036
rhand -16.4605 8.24327
rfingers 7.12502
rthumb 9.75588 -21.5108
lclavicle -9.14409e-015 6.36111e-015
lhumerus -41.2709 7.17601 81.8145
lradius 39.8397
lwrist -6.12828
lhand -18.1743 28.1377
lfingers 7.12502
lthumb 8.1021 57.9623
rfemur -8.20149 -1.42086 24.3263
rtibia 25.161
rfoot -12.3235 -1.45157
rtoes 2.80974
lfemur -22.7856 -4.9215 -18.6047
ltibia 41.8146
lfoot -6.11174 1.5191
ltoes -9.46894
2009
root -0.908324 18.1853 -6.50006 536.978 66.5245 172.292
lowerback 11.7147 1.276 1.89952
upperback 2.20692 2.07068 0.768035
thorax -4.21701 1.04906 -0.585046
lowerneck -9.79195 -3.38881 -11.1705
upperneck 43.8736 1.87049 0.917117
head 18.1409 0.212603 3.16537
rclavicle 1.11319e-014 3.97569e-015
rhumerus -32.5709 -9.63419 -80.4401
rradius 44.6079
rwrist -1.0086
rhand -16.3866 8.4362
rfingers 7.12502
rthumb 9.82714 -21.3145
lclavicle 1.11319e-014 3.97569e-015
lhumerus -41.2588 7.53841 81.5784
lradius 39.1437
lwrist -6.14278
lhand -18.3204 27.9709
lfingers 7.12502
lthumb 7.9611 57.801
rfemur -8.31993 -1.39546 24.3017
rtibia 25.2624
rfoot -12.2868 -2.01123
rtoes 1.77899
lfemur -22.1909 -4.4307 -18.7462
ltibia 43.1332
lfoot -6.1505 1.86994
ltoes -7.33595
2010
root -0.983162 18.1857 -6.46905 537.036 65.9128 172.498
lowerback 11.6273 1.2048 1.90493
upperback 2.22067 1.97689 0.794915
thorax -4.15733 1.00404 -0.543516
lowerneck -9.74331 -3.43457 -11.1753
upperneck 43.8329 1.78131 0.950717
head 18.1094 0.18631 3.16582
rclavicle 8.15017e-015 -4.05521e-014
rhumerus -32.7318 -9.67907 -80.3228
rradius 44.9549
rwrist -1.31172
rhand -16.4552 8.44051
rfingers 7.12502
rthumb 9.76097 -21.3133
lclavicle 8.15017e-015 -4.05521e-014
lhumerus -41.1955 7.99732 81.2662
lradius 38.4862
lwrist -6.28788
lhand -18.1877 27.9894
lfingers 7.12502
lthumb 8.08915 57.8146
rfemur -8.47346 -1.61569 24.3446
rtibia 25.3343
rfoot -12.1448 -2.28523
rtoes 1.5
lfemur -21.5815 -4.07199 -18.7589
ltibia 44.3407
lfoot -6.03609 2.0551
ltoes -6.15242
2011
root -1.05699 18.1899 -6.43553 537.23 65.3328 172.775
lowerback 11.5156 1.09671 1.88872
upperback 2.17999 1.83097 0.849354
thorax -4.1436 0.931861 -0.453893
lowerneck -9.7111 -3.41492 -11.222
upperneck 43.8177 1.818 0.976892
head 18.0884 0.202256 3.19286
rclavicle -7.63333e-014 -1.66979e-014
rhumerus -32.9197 -9.3969 -80.265
rradius 45.3035
rwrist -1.46299
rhand -16.5545 8.45967
rfingers 7.12502
rthumb 9.66522 -21.2986
lclavicle -7.63333e-014 -1.66979e-014
lhumerus -41.2056 8.4769 80.966
lradius 37.844
lwrist -6.51293
lhand -18.4332 28.3344
lfingers 7.12502
lthumb 7.85226 58.1686
rfemur -8.70264 -1.68734 24.4416
rtibia 25.389
rfoot -11.9616 -2.68271
rtoes 1.72016
lfemur -21.0056 -3.64337 -18.7079
ltibia 45.4211
lfoot -5.81748 2.06245
ltoes -5.81954
2012
root -1.1277 18.1935 -6.39672 537.253 64.7807 172.867
lowerback 11.3924 0.998436 1.7456
upperback 2.15554 1.68097 0.877992
thorax -4.10903 0.85939 -0.319047
lowerneck -9.73765 -3.40174 -11.3458
upperneck 43.8217 1.85345 1.05198
head 18.0954 0.208049 3.25791
rclavicle -6.95746e-014 -2.14687e-014
rhumerus -32.9089 -9.41196 -80.2405
rradius 45.4219
rwrist -1.47271
rhand -16.5407 8.3467
rfingers 7.12502
rthumb 9.67847 -21.4109
lclavicle -6.95746e-014 -2.14687e-014
lhumerus -41.2175 8.75741 80.7541
lradius 37.2297
lwrist -6.75897
lhand -18.7725 28.5037
lfingers 7.12502
lthumb 7.52478 58.3499
rfemur -8.91954 -1.53251 24.502
rtibia 25.4194
rfoot -11.902 -3.28198
rtoes 2.65801
lfemur -20.3733 -2.9849 -18.7137
ltibia 46.3781
lfoot -5.54019 1.84012
ltoes -7.39503
2013
root -1.19885 18.1955 -6.36174 537.247 64.1603 172.936
lowerback 11.244 0.879022 1.65449
upperback 2.16006 1.50959 0.907528
thorax -4.02832 0.776724 -0.20903
lowerneck -9.75192 -3.40977 -11.562
upperneck 43.8358 1.87251 1.16043
head 18.1084 0.196813 3.35299
rclavicle 2.64384e-014 -2.14687e-014
rhumerus -32.8596 -9.6246 -80.1891
rradius 45.4341
rwrist -1.48088
rhand -16.6196 8.32644
rfingers 7.12502
rthumb 9.60243 -21.4347
lclavicle 2.64384e-014 -2.14687e-014
lhumerus -41.1896 8.9971 80.6083
lradius 36.7098
lwrist -6.88033
lhand -19.0454 28.6005
lfingers 7.12502
lthumb 7.26129 58.4559
rfemur -9.09505 -1.80384 24.5083
rtibia 25.3861
rfoot -11.8447 -3.56511
rtoes 3.79729
lfemur -19.6951 -2.37407 -18.7226
ltibia 47.2396
lfoot -5.28164 1.38925
ltoes -8.58418
